<?xml version="1.0" encoding="UTF-8" standalone="no"?>
<!-- Created with Inkscape (http://www.inkscape.org/) -->

<svg
   xmlns:dc="http://purl.org/dc/elements/1.1/"
   xmlns:cc="http://creativecommons.org/ns#"
   xmlns:rdf="http://www.w3.org/1999/02/22-rdf-syntax-ns#"
   xmlns:svg="http://www.w3.org/2000/svg"
   xmlns="http://www.w3.org/2000/svg"
   xmlns:sodipodi="http://sodipodi.sourceforge.net/DTD/sodipodi-0.dtd"
   xmlns:inkscape="http://www.inkscape.org/namespaces/inkscape"
   width="64"
   height="64"
   viewBox="0 0 64.000001 64.000001"
   id="svg2"
   version="1.1"
   inkscape:version="0.91 r13725"
   sodipodi:docname="icon.svg">
  <defs
     id="defs4" />
  <sodipodi:namedview
     id="base"
     pagecolor="#ffffff"
     bordercolor="#666666"
     borderopacity="1.0"
     inkscape:pageopacity="0.0"
     inkscape:pageshadow="2"
     inkscape:zoom="0.7"
     inkscape:cx="126.81083"
     inkscape:cy="305.73551"
     inkscape:document-units="px"
     inkscape:current-layer="layer1"
     showgrid="false"
     units="px"
     inkscape:window-width="1280"
     inkscape:window-height="983"
     inkscape:window-x="0"
     inkscape:window-y="0"
     inkscape:window-maximized="1" />
  <metadata
     id="metadata7">
    <rdf:RDF>
      <cc:Work
         rdf:about="">
        <dc:format>image/svg+xml</dc:format>
        <dc:type
           rdf:resource="http://purl.org/dc/dcmitype/StillImage" />
        <dc:title></dc:title>
      </cc:Work>
    </rdf:RDF>
  </metadata>
  <g
     inkscape:label="Layer 1"
     inkscape:groupmode="layer"
     id="layer1"
     transform="translate(0,-988.36216)">
    <path
       style="fill:none;fill-rule:evenodd;stroke:#000000;stroke-width:3;stroke-linecap:butt;stroke-linejoin:miter;stroke-opacity:1"
       d="m 1.621811,994.80629 60.772672,0"
       id="path3361"
       inkscape:connector-curvature="0" />
    <path
       inkscape:connector-curvature="0"
       id="path3365"
       d="m 1.621811,1001.8513 60.772672,0"
       style="fill:none;fill-rule:evenodd;stroke:#808080;stroke-width:3;stroke-linecap:butt;stroke-linejoin:miter;stroke-opacity:1" />
    <path
       style="fill:none;fill-rule:evenodd;stroke:#000000;stroke-width:3;stroke-linecap:butt;stroke-linejoin:miter;stroke-opacity:1"
       d="m 1.621811,1008.8963 60.772672,0"
       id="path3367"
       inkscape:connector-curvature="0" />
    <path
       inkscape:connector-curvature="0"
       id="path3369"
       d="m 1.621811,1015.9412 60.772672,0"
       style="fill:none;fill-rule:evenodd;stroke:#808080;stroke-width:3;stroke-linecap:butt;stroke-linejoin:miter;stroke-opacity:1" />
    <path
       style="fill:none;fill-rule:evenodd;stroke:#000000;stroke-width:3;stroke-linecap:butt;stroke-linejoin:miter;stroke-opacity:1"
       d="m 1.621811,1022.9861 60.772672,0"
       id="path3371"
       inkscape:connector-curvature="0" />
    <path
       inkscape:connector-curvature="0"
       id="path3373"
       d="m 1.621811,1030.0312 60.772672,0"
       style="fill:none;fill-rule:evenodd;stroke:#808080;stroke-width:3;stroke-linecap:butt;stroke-linejoin:miter;stroke-opacity:1" />
    <path
       inkscape:connector-curvature="0"
       id="path3414"
       d="m 25.602773,988.91666 0,46.58314"
       style="fill:none;fill-rule:evenodd;stroke:#ffffff;stroke-width:4;stroke-linecap:butt;stroke-linejoin:miter;stroke-opacity:1" />
    <path
       style="fill:none;fill-rule:evenodd;stroke:#ffffff;stroke-width:4;stroke-linecap:butt;stroke-linejoin:miter;stroke-opacity:1"
       d="m 12.643734,988.91666 0,46.58314"
       id="path3416"
       inkscape:connector-curvature="0" />
    <path
       inkscape:connector-curvature="0"
       id="path3418"
       d="m 38.561816,988.91666 0,46.58314"
       style="fill:none;fill-rule:evenodd;stroke:#ffffff;stroke-width:4;stroke-linecap:butt;stroke-linejoin:miter;stroke-opacity:1" />
    <path
       style="fill:none;fill-rule:evenodd;stroke:#ffffff;stroke-width:4;stroke-linecap:butt;stroke-linejoin:miter;stroke-opacity:1"
       d="m 51.520856,988.91666 0,46.58314"
       id="path3422"
       inkscape:connector-curvature="0" />
    <path
       sodipodi:nodetypes="cssc"
       inkscape:connector-curvature="0"
       id="path3428"
       d="m 1.140277,1039.6211 c 8.6659417,0.6346 17.141415,11.0258 25.673599,10.7957 9.04877,-0.2443 9.813597,-57.47759 17.257711,-59.12569 7.444113,-1.64812 9.596241,52.12709 18.555379,51.25079"
       style="fill:none;fill-rule:evenodd;stroke:#ffffff;stroke-width:4;stroke-linecap:butt;stroke-linejoin:miter;stroke-opacity:1" />
    <path
       sodipodi:nodetypes="cssc"
       inkscape:connector-curvature="0"
       id="path3420"
       d="m 1.140277,1038.8047 c 8.6659417,-0.1444 17.141415,-2.4935 25.673599,-2.4414 9.04877,0.054 9.813597,12.9987 17.257711,13.3715 7.444113,0.3727 9.596241,-11.7888 18.555379,-11.5907"
       style="fill:#c837ab;fill-rule:evenodd;stroke:#c837ab;stroke-width:1px;stroke-linecap:butt;stroke-linejoin:miter;stroke-opacity:1" />
    <path
       style="fill:#2a7fff;fill-rule:evenodd;stroke:#2a7fff;stroke-width:1px;stroke-linecap:butt;stroke-linejoin:miter;stroke-opacity:1"
       d="m 1.140277,1039.6211 c 8.6659417,0.6346 17.141415,11.0258 25.673599,10.7957 9.04877,-0.2443 9.813597,-57.47759 17.257711,-59.12569 7.444113,-1.64812 9.596241,52.12709 18.555379,51.25079"
       id="path3338"
       inkscape:connector-curvature="0"
       sodipodi:nodetypes="cssc" />
    <path
       sodipodi:nodetypes="cssc"
       inkscape:connector-curvature="0"
       id="path3353"
       d="m 1.140277,1039.1712 c 8.6659417,0.4386 17.141415,7.6194 25.673599,7.4603 9.04877,-0.1692 9.813597,-39.7196 17.257711,-40.8587 7.444113,-1.1389 9.596241,36.0224 18.555379,35.4168"
       style="fill:#00d400;fill-rule:evenodd;stroke:#00d400;stroke-width:0.99999982px;stroke-linecap:butt;stroke-linejoin:miter;stroke-opacity:1" />
    <path
       style="fill:#ffcc00;fill-rule:evenodd;stroke:#ffcc00;stroke-width:1px;stroke-linecap:butt;stroke-linejoin:miter;stroke-opacity:1"
       d="m 1.140277,1039.157 c 8.6659417,0.2114 17.141415,3.6747 25.673599,3.5978 9.04877,-0.082 9.813597,-19.156 17.257711,-19.7053 7.444113,-0.5492 9.596241,17.373 18.555379,17.0809"
       id="path3355"
       inkscape:connector-curvature="0"
       sodipodi:nodetypes="cssc" />
    <path
       sodipodi:nodetypes="cssc"
       inkscape:connector-curvature="0"
       id="path3357"
       d="m 1.140277,1039.3077 c 8.6659417,0.057 17.816419,0.202 26.348603,0.1811 9.048769,-0.033 9.138593,-4.4153 16.582707,-4.5647 7.444113,-0.1512 9.596241,4.7276 18.555379,4.6482"
       style="fill:#ff7f2a;fill-rule:evenodd;stroke:#ff7f2a;stroke-width:1px;stroke-linecap:butt;stroke-linejoin:miter;stroke-opacity:1" />
    <path
       style="fill:#ff0000;fill-rule:evenodd;stroke:#ff0000;stroke-width:1px;stroke-linecap:butt;stroke-linejoin:miter;stroke-opacity:1"
       d="m 1.140277,1039.0928 c 8.6659417,-0.093 17.141415,-1.6112 25.673599,-1.5776 9.04877,0.035 9.813597,8.3995 17.257711,8.6404 7.444113,0.2408 9.596241,-7.6177 18.555379,-7.4897"
       id="path3359"
       inkscape:connector-curvature="0"
       sodipodi:nodetypes="cssc" />
  </g>
</svg>
